<svg width="48" height="53" viewBox="0 0 48 53" fill="none" xmlns="http://www.w3.org/2000/svg">
<rect x="1" y="1" width="46" height="51" rx="5" fill="#FFF1BF" stroke="#5C913B" stroke-width="2"/>
<path d="M23.5 38.125V27.7917M23.5 27.7917C23.5 28.5047 24.0787 29.0891 24.7891 29.0207C29.1911 28.5944 34.5864 25.8742 35.0875 17.4629M23.5 27.7917V22.3848C23.5 22.2343 23.5258 22.0825 23.5807 21.943C25.5131 16.941 30.1411 16.2668 33.8333 16.1796C34.547 16.1621 35.1289 16.7505 35.0862 17.4629M13.1654 14.9215C19.1904 15.3639 22.3343 18.8553 23.3928 21.0944C23.4671 21.2507 23.5 21.4225 23.5 21.5955V26.4419C23.5 27.1781 22.88 27.7691 22.1476 27.6948C12.7385 26.748 11.946 20.5493 11.8808 16.1667C11.8705 15.4524 12.4543 14.8685 13.1667 14.9215" stroke="#5C913B" stroke-width="4" stroke-linecap="round" stroke-linejoin="round"/>
</svg>
