<svg width="48" height="53" viewBox="0 0 48 53" fill="none" xmlns="http://www.w3.org/2000/svg">
<rect x="0.5" y="0.5" width="47" height="52" rx="5.5" fill="#0888FF" stroke="#0888FF"/>
<path d="M8.04 32.9091C10.896 32.9091 11.448 35.7273 16.032 35.7273C20.712 35.7273 21.048 32.9091 24.024 32.9091C26.88 32.9091 27.432 35.7273 32.016 35.7273C36.696 35.7273 37.032 32.9091 40.008 32.9091C42.864 32.9091 43.368 35.6709 47.952 35.7273V30.0909C45.096 30.0909 44.544 27.2727 39.96 27.2727C35.28 27.2727 34.944 30.0909 31.968 30.0909C29.112 30.0909 28.56 27.2727 23.976 27.2727C19.296 27.2727 18.96 30.0909 15.984 30.0909C13.128 30.0909 12.576 27.2727 7.992 27.2727C3.312 27.2727 2.976 30.0909 0 30.0909V35.7273C4.56 35.7273 5.208 32.9091 8.04 32.9091ZM40.008 38.5455C35.328 38.5455 34.992 41.3636 32.016 41.3636C29.16 41.3636 28.608 38.5455 24.024 38.5455C19.344 38.5455 18.984 41.3636 16.008 41.3636C13.032 41.3636 12.696 38.5455 8.016 38.5455C3.336 38.5455 2.976 41.3636 0 41.3636V47C4.68 47 5.064 44.1818 8.016 44.1818C10.992 44.1818 11.328 47 16.008 47C20.688 47 21.048 44.1818 24.024 44.1818C26.88 44.1818 27.432 47 32.016 47C36.672 47 37.032 44.1818 40.008 44.1818C42.864 44.1818 43.416 47 48 47V41.3636C45.024 41.3636 44.688 38.5455 40.008 38.5455ZM8.04 21.6364C10.896 21.6364 11.448 24.4545 16.032 24.4545C20.712 24.4545 21.048 21.6364 24.024 21.6364C26.88 21.6364 27.432 24.4545 32.016 24.4545C36.696 24.4545 37.032 21.6364 40.008 21.6364C42.864 21.6364 43.368 24.3982 47.952 24.4545V18.8182C45.096 18.8182 44.544 16 39.96 16C35.28 16 34.944 18.8182 31.968 18.8182C29.112 18.8182 28.56 16 23.976 16C19.296 16 18.96 18.8182 15.984 18.8182C13.128 18.8182 12.576 16 7.992 16C3.312 16 2.976 18.8182 0 18.8182V24.4545C4.56 24.4545 5.208 21.6364 8.04 21.6364Z" fill="white"/>
</svg>
